<svg id="Layer_1" data-name="Layer 1" xmlns="http://www.w3.org/2000/svg" viewBox="0 0 595.28 595.28"><title>file vector logo đen</title><path d="M238.63,358.81v-43H235.4l-5.84-64.52h7.53l5.07,60.22h.92l5.07-60.22h7.53l-5.84,64.52h-3.23v43Z"/><path d="M271.19,358.81V251.27h8.45a11.25,11.25,0,0,1,9.91,5.53q3.61,5.54,5.15,17.13A249.26,249.26,0,0,1,296.23,305a249.37,249.37,0,0,1-1.53,31.11q-1.54,11.6-5.15,17.12a11.26,11.26,0,0,1-9.91,5.54Zm9.07-7.53q2.76,0,4.37-4.46t2.31-14.44q.69-10,.69-27.34t-.69-27.35q-.69-10-2.31-14.44t-4.37-4.45h-1.08v92.48Z"/><path d="M314.05,358.81V251.27h20.28v7.53H322V300h10v7.53H322v43.78h12.29v7.53Z"/><path d="M349.84,358.81V251.27h8a12.44,12.44,0,0,1,8.45,3.07q3.54,3.07,5.3,9.14a53,53,0,0,1,1.77,14.67q0,13.37-3.92,19.74a12.75,12.75,0,0,1-11.6,6.38h-1.69V297.2h2.46q3.22,0,4.69-4.53t1.46-14.52q0-10.14-1.46-14.74c-1-3.08-2.54-4.61-4.69-4.61h-.77v100Zm20,0a4,4,0,0,1-3.46-1.39,8.05,8.05,0,0,1-1-4.61v-32.1c0-2.66-.54-4.64-1.61-5.92a6,6,0,0,0-4.84-1.92h-2.77v-7.06h3.69q6.6,0,10.06,3.76t3.46,11.14v31.34a13,13,0,0,0,.54,4.07,2.71,2.71,0,0,0,1.46,1.92v.77Z"/><path d="M401.61,360.34a9,9,0,0,1-6.6-2.76,18,18,0,0,1-4.23-8,46.75,46.75,0,0,1-1.46-12.45,79.83,79.83,0,0,1,.46-8.29,58.88,58.88,0,0,1,1.08-6.91h7.37a61.25,61.25,0,0,0-.69,6.29q-.23,3.69-.23,7.69a64.34,64.34,0,0,0,1,13.28q1,4.38,3.3,4.38c1.44,0,2.51-1.4,3.23-4.22a63.29,63.29,0,0,0-.92-27.35,145.94,145.94,0,0,0-6.15-15.9q-2.76-5.83-4.45-10.21a62.36,62.36,0,0,1-2.84-9.91,59.44,59.44,0,0,1-1.16-12.14,50.86,50.86,0,0,1,1.46-13,18.58,18.58,0,0,1,4.23-8.29,8.87,8.87,0,0,1,6.6-2.85,9,9,0,0,1,6.61,2.77,17.89,17.89,0,0,1,4.22,8,46.32,46.32,0,0,1,1.46,12.44,65.77,65.77,0,0,1-.46,7.76,35,35,0,0,1-1.07,5.91H405c.21-1.23.41-3,.62-5.37s.3-4.71.3-7.07A61.29,61.29,0,0,0,404.84,261c-.72-3-1.79-4.53-3.23-4.53s-2.51,1.29-3.22,3.87a43.34,43.34,0,0,0-1.08,11,44.4,44.4,0,0,0,2.08,14.2,106.26,106.26,0,0,0,6.06,14.06q2.93,6.9,4.54,11.43a73.51,73.51,0,0,1,2.76,10.44,68,68,0,0,1,1.15,13,56.58,56.58,0,0,1-1.46,13.82,21.08,21.08,0,0,1-4.22,8.88A8.54,8.54,0,0,1,401.61,360.34Z"/><path d="M434.64,358.81v-100h-9.06v-7.53h26.11v7.53h-9.06v100Z"/><rect x="157.52" y="285.56" width="10.03" height="18.45"/><rect x="159.02" y="298.82" width="10.96" height="10.9"/><path d="M206.65,372.53a18.12,18.12,0,0,1-.16-2.4V321.8q0-11.37-8.67-17.17t-25.26-5.81h-5v10.9h2.7q8.1,0,12.15,3t4.05,9.12v49.52c0,3.31.83,5.68,2.51,7.1,1.5,1.29,4,2,7.51,2.11v-8Z"/><path d="M207.84,376.41a5.34,5.34,0,0,0,3.67,3v1.19H465.58v-8H206.65A11.12,11.12,0,0,0,207.84,376.41Z"/><path d="M196.46,380.56h1.16c-.4,0-.78,0-1.16,0Z"/><path d="M207.84,376.41a11.12,11.12,0,0,1-1.19-3.88H196.46v8c.38,0,.76,0,1.16,0h13.89v-1.19A5.34,5.34,0,0,1,207.84,376.41Z"/><rect x="474.27" y="372.53" width="8.02" height="8.02"/><rect x="163.3" y="285.56" width="6.68" height="10.9"/><path d="M202.06,233.55a30.24,30.24,0,0,0-13.31-14.09q-8.87-4.74-21.21-4.74h-20v27.1h20V226.33h1.93a12.31,12.31,0,0,1,11.76,7.11q3.66,7.09,3.67,22.74,0,15.4-3.67,22.39t-11.76,7h-1.93v10.89q19.29,0,29.12-9.83t9.83-30.44Q206.49,242.91,202.06,233.55Z"/><polygon points="163.3 285.56 147.49 285.56 147.49 358.81 167.54 358.81 167.54 309.72 163.3 309.72 163.3 298.82 167.54 298.82 167.54 296.45 163.3 296.45 163.3 285.56"/></svg>